<svg aria-hidden="true" style="width:0;height:0;position:absolute;overflow:hidden" xmlns="http://www.w3.org/2000/svg"><defs><symbol id="icon-16" viewBox="0 0 47 32"><path d="M6.058 30.545V5.376l4.113 3.91H1.17V2.037h14.499v28.509H6.057zm28.427.652c-2.715 0-5.105-.516-7.168-1.548-2.036-1.059-3.638-2.62-4.806-4.684-1.14-2.091-1.711-4.684-1.711-7.779 0-3.34.665-6.177 1.996-8.512 1.33-2.362 3.177-4.168 5.539-5.417 2.389-1.249 5.145-1.873 8.268-1.873 1.683 0 3.299.204 4.847.611 1.575.38 2.905.923 3.991 1.629l-3.462 6.72c-.842-.597-1.697-.991-2.566-1.181a10.404 10.404 0 0 0-2.607-.326c-1.928 0-3.475.584-4.643 1.751-1.14 1.14-1.711 2.81-1.711 5.009V18l-2.199-1.588c.543-.923 1.181-1.697 1.914-2.321.733-.652 1.602-1.14 2.607-1.466 1.005-.353 2.172-.529 3.503-.529 1.738 0 3.34.38 4.806 1.14 1.493.733 2.688 1.778 3.584 3.136.923 1.358 1.385 2.973 1.385 4.847 0 2.036-.516 3.801-1.548 5.295s-2.43 2.647-4.195 3.462c-1.738.815-3.679 1.222-5.824 1.222zm-.652-6.638c.57 0 1.072-.109 1.507-.326.462-.244.815-.584 1.059-1.018s.367-.95.367-1.548c0-.896-.272-1.602-.815-2.118-.543-.543-1.249-.815-2.118-.815-.57 0-1.073.122-1.507.367s-.788.584-1.059 1.018c-.244.434-.367.95-.367 1.548s.122 1.113.367 1.548c.271.434.624.774 1.059 1.018.434.217.937.326 1.507.326z"/></symbol><symbol id="icon-23" viewBox="0 0 52 32"><path d="M2.079 30.545V24.64l10.304-9.53c.652-.624 1.127-1.168 1.425-1.629.326-.462.543-.869.652-1.222.109-.38.163-.733.163-1.059 0-.706-.231-1.249-.692-1.629-.462-.407-1.154-.611-2.077-.611-.842 0-1.643.231-2.403.692-.76.434-1.358 1.086-1.792 1.955L.41 7.982c1.032-1.955 2.579-3.543 4.643-4.765s4.629-1.833 7.697-1.833c2.254 0 4.249.367 5.987 1.1s3.095 1.765 4.073 3.095 1.466 2.905 1.466 4.724c0 .923-.122 1.846-.367 2.769-.217.923-.679 1.901-1.385 2.932-.706 1.005-1.751 2.131-3.136 3.38L11.65 26.43l-1.507-3.34h14.784v7.453H2.079zm36.264.652c-1.955 0-3.937-.217-5.946-.652s-3.774-1.072-5.295-1.914l3.258-7.087a15.65 15.65 0 0 0 3.828 1.588c1.358.326 2.634.489 3.828.489 1.086 0 1.968-.176 2.647-.529.706-.38 1.059-.937 1.059-1.67 0-.624-.258-1.1-.774-1.425-.516-.353-1.385-.529-2.607-.529h-3.788v-5.905l7.372-7.494.855 3.217H28.566V2.037h21.26v5.905l-7.372 7.494-4.602-2.607h2.525c3.584 0 6.313.801 8.186 2.403s2.81 3.665 2.81 6.191c0 1.629-.462 3.19-1.385 4.684-.896 1.493-2.308 2.715-4.236 3.665-1.901.95-4.371 1.425-7.412 1.425z"/></symbol><symbol id="icon-Arrow" viewBox="0 0 82 32"><path d="M81.414 17.414a2 2 0 0 0 0-2.828L68.686 1.858a2 2 0 1 0-2.828 2.828L77.172 16 65.858 27.314a2 2 0 1 0 2.828 2.828l12.728-12.728zM0 18h80v-4H0v4z"/></symbol></defs></svg>